<?xml version="1.0" encoding="UTF-8"?>
<svg version="1.1" xmlns="http://www.w3.org/2000/svg" width="104" height="104">
<path d="M0 0 C12.90260465 8.29895531 21.41876547 20.04190278 24.75 35.1875 C26.25575612 53.04888294 22.9105743 67.23062988 11.5625 81.375 C4.05283268 89.56285313 -8.09781553 96.41594956 -19.34960938 97.36450195 C-37.38682217 97.85703246 -51.66079256 94.80126299 -65.37109375 82.2265625 C-77.34553024 69.23143599 -80.05716863 54.54990459 -79.42919922 37.61035156 C-78.53461978 25.5152475 -71.05393337 13.29993669 -62.25 5.1875 C-43.60477089 -8.83944929 -20.59459356 -11.60390241 0 0 Z " fill="#F4F4F4" transform="translate(79.25,6.8125)"/>
<path d="M0 0 C6.54930938 3.65249946 10.99911797 7.59197394 13.25 14.8125 C14.45869845 22.34836484 12.36684562 27.9944002 9.25 34.8125 C11.56 37.1225 13.87 39.4325 16.25 41.8125 C15.92 42.8025 15.59 43.7925 15.25 44.8125 C11.30860922 43.14498852 8.4607188 40.58539351 5.25 37.8125 C4.156875 38.4725 3.06375 39.1325 1.9375 39.8125 C-3.86249977 42.68683617 -9.85429352 42.98781484 -16.0546875 41.1171875 C-22.0892682 38.40731919 -25.44996685 34.23325139 -28.5625 28.4375 C-30.89133892 21.32841278 -30.06625919 15.90381597 -27.15625 9.1484375 C-24.82747241 5.28007917 -21.60870366 3.04331305 -17.75 0.8125 C-16.78513672 0.24982422 -16.78513672 0.24982422 -15.80078125 -0.32421875 C-10.74091167 -2.4541829 -5.08439215 -1.61005751 0 0 Z " fill="#F5EEE2" transform="translate(58.75,30.1875)"/>
<path d="M0 0 C6.54930938 3.65249946 10.99911797 7.59197394 13.25 14.8125 C14.45869845 22.34836484 12.36684562 27.9944002 9.25 34.8125 C11.56 37.1225 13.87 39.4325 16.25 41.8125 C15.92 42.8025 15.59 43.7925 15.25 44.8125 C11.30860922 43.14498852 8.4607188 40.58539351 5.25 37.8125 C4.156875 38.4725 3.06375 39.1325 1.9375 39.8125 C-3.86249977 42.68683617 -9.85429352 42.98781484 -16.0546875 41.1171875 C-22.0892682 38.40731919 -25.44996685 34.23325139 -28.5625 28.4375 C-30.89133892 21.32841278 -30.06625919 15.90381597 -27.15625 9.1484375 C-24.82747241 5.28007917 -21.60870366 3.04331305 -17.75 0.8125 C-16.78513672 0.24982422 -16.78513672 0.24982422 -15.80078125 -0.32421875 C-10.74091167 -2.4541829 -5.08439215 -1.61005751 0 0 Z M-23.453125 9.99609375 C-26.93504787 14.87288332 -27.51597556 18.91739699 -26.75 24.8125 C-24.89570775 31.03048598 -21.40641948 34.75462126 -15.75 37.8125 C-10.53079895 39.55223368 -6.20609457 39.28141181 -1.0625 37.625 C4.52959656 34.56517358 8.05293837 30.82551078 10.25 24.8125 C10.99586302 19.13168031 10.56759688 14.62836645 7.25 9.8125 C2.78869603 5.31886774 -1.54927709 1.53460907 -8.125 1.5 C-15.24704532 1.70981476 -19.04267952 4.69644555 -23.453125 9.99609375 Z " fill="#FDA218" transform="translate(58.75,30.1875)"/>
<path d="M0 0 C2.9375 2.1875 2.9375 2.1875 5 5 C5.4375 8.1875 5.4375 8.1875 5 11 C3 13 3 13 -0.15234375 13.265625 C-1.40144531 13.26046875 -2.65054688 13.2553125 -3.9375 13.25 C-5.18402344 13.25515625 -6.43054687 13.2603125 -7.71484375 13.265625 C-11 13 -11 13 -14 11 C-14.5 8.1875 -14.5 8.1875 -14 5 C-9.38910443 -0.46027107 -7.00612913 -1.66247132 0 0 Z " fill="#FE9F10" transform="translate(55,49)"/>
<path d="M0 0 C2.3125 1.75 2.3125 1.75 4 4 C4 5.32 4 6.64 4 8 C-0.29 8 -4.58 8 -9 8 C-7.80122479 2.00612394 -6.58798991 -1.12477876 0 0 Z " fill="#F5EFE6" transform="translate(53,51)"/>
<path d="M0 0 C0.09152344 0.58265625 0.18304688 1.1653125 0.27734375 1.765625 C1.17201069 4.53183847 2.46164769 5.76373964 4.5625 7.75 C5.20316406 8.36359375 5.84382813 8.9771875 6.50390625 9.609375 C6.99761719 10.06828125 7.49132812 10.5271875 8 11 C7.67 11.99 7.34 12.98 7 14 C4.1986841 12.81482789 2.17815856 11.32406379 -0.0625 9.3125 C-1.031875 8.549375 -2.00125 7.78625 -3 7 C-3.99 7.33 -4.98 7.66 -6 8 C-4.55746343 4.63408134 -2.66735273 2.48952921 0 0 Z " fill="#FDA725" transform="translate(67,61)"/>
<path d="M0 0 C0.66 0.33 1.32 0.66 2 1 C1.1875 2.9375 1.1875 2.9375 0 5 C-0.99 5.33 -1.98 5.66 -3 6 C-3.33 7.65 -3.66 9.3 -4 11 C-4.33 11 -4.66 11 -5 11 C-5.3125 8.3125 -5.3125 8.3125 -5 5 C-2.5 2.125 -2.5 2.125 0 0 Z " fill="#FDA625" transform="translate(46,49)"/>
<path d="M0 0 C0.99 0.33 1.98 0.66 3 1 C0.87219421 3.34058637 -1.11562221 4.70700306 -4 6 C-2.25 1.125 -2.25 1.125 0 0 Z " fill="#FE9D0C" transform="translate(43,30)"/>
</svg>
