<svg width="52" height="52" viewBox="0 0 52 52" fill="none" xmlns="http://www.w3.org/2000/svg">
<rect width="52" height="52" rx="26" fill="#F5F5F5"/>
<path d="M36.6711 24.1606V36.6712" stroke="#FF9900" stroke-width="1.5" stroke-linecap="round" stroke-linejoin="round"/>
<path d="M16.6628 36.6711H12.6611" stroke="#FF9900" stroke-width="1.5" stroke-linecap="round" stroke-linejoin="round"/>
<path fill-rule="evenodd" clip-rule="evenodd" d="M26 32.6694V32.6694C28.21 32.6694 30.0016 34.461 30.0016 36.6711V36.6711C30.0016 37.4078 29.4044 38.005 28.6677 38.005H23.3322C22.5955 38.005 21.9983 37.4078 21.9983 36.6711V36.6711C21.9983 34.461 23.7899 32.6694 26 32.6694Z" stroke="#FF9900" stroke-width="1.5" stroke-linecap="round" stroke-linejoin="round"/>
<path d="M15.3291 24.158V36.6712" stroke="#FF9900" stroke-width="1.5" stroke-linecap="round" stroke-linejoin="round"/>
<path d="M35.0039 24.6662V24.6662C36.6614 24.6662 38.0051 23.3225 38.0051 21.665V21.4956C38.0051 20.9518 37.8572 20.4183 37.577 19.9523L34.7758 15.2903C34.2946 14.4884 33.4287 13.997 32.4935 13.9951H19.5068C18.5703 13.9951 17.7024 14.4862 17.22 15.2889L14.418 19.9523C14.1396 20.4188 13.9934 20.9523 13.9951 21.4956V21.665C13.9951 23.3225 15.3389 24.6662 16.9964 24.6662V24.6662" stroke="#FF9900" stroke-width="1.5" stroke-linecap="round" stroke-linejoin="round"/>
<path d="M39.3391 36.6711H35.3374" stroke="#FF9900" stroke-width="1.5" stroke-linecap="round" stroke-linejoin="round"/>
<path d="M35.0038 24.6662C33.6757 24.6662 32.5054 23.7935 32.1263 22.5206C32.1139 22.4622 32.0623 22.4204 32.0026 22.4204C31.9429 22.4204 31.8913 22.4622 31.8789 22.5206C31.4999 23.7936 30.3295 24.6662 29.0013 24.6662C27.6732 24.6662 26.5028 23.7936 26.1238 22.5206C26.1114 22.4622 26.0598 22.4204 26.0001 22.4204C25.9404 22.4204 25.8888 22.4622 25.8764 22.5206C25.4974 23.7936 24.327 24.6662 22.9988 24.6662C21.6707 24.6662 20.5003 23.7936 20.1213 22.5206C20.1089 22.4622 20.0573 22.4204 19.9976 22.4204C19.9379 22.4204 19.8863 22.4622 19.8739 22.5206C19.4948 23.7935 18.3245 24.6662 16.9963 24.6662" stroke="#FF9900" stroke-width="1.5" stroke-linecap="round" stroke-linejoin="round"/>
<path d="M26.3339 28.6683C26.3337 28.8524 26.1844 29.0015 26.0003 29.0014C25.8162 29.0013 25.667 28.8521 25.667 28.6681C25.6669 28.484 25.816 28.3347 26 28.3344C26.0886 28.3343 26.1736 28.3695 26.2362 28.4321C26.2989 28.4948 26.334 28.5797 26.3339 28.6683" stroke="#FF9900" stroke-width="1.5" stroke-linecap="round" stroke-linejoin="round"/>
<path d="M30.3356 30.0021C30.3354 30.1861 30.1861 30.3352 30.002 30.3351C29.8179 30.3351 29.6688 30.1859 29.6687 30.0018C29.6686 29.8177 29.8177 29.6684 30.0017 29.6682C30.0903 29.6681 30.1753 29.7032 30.2379 29.7659C30.3006 29.8285 30.3357 29.9135 30.3356 30.0021" stroke="#FF9900" stroke-width="1.5" stroke-linecap="round" stroke-linejoin="round"/>
<path d="M22.3322 30.0021C22.332 30.1861 22.1826 30.3352 21.9986 30.3351C21.8145 30.3351 21.6653 30.1859 21.6653 30.0018C21.6652 29.8177 21.8142 29.6684 21.9983 29.6682C22.0869 29.6681 22.1719 29.7032 22.2345 29.7659C22.2972 29.8285 22.3323 29.9135 22.3322 30.0021" stroke="#FF9900" stroke-width="1.5" stroke-linecap="round" stroke-linejoin="round"/>
</svg>
