<?xml version="1.0" encoding="UTF-8"?>
<svg version="1.1" xmlns="http://www.w3.org/2000/svg" width="104" height="104">
<path d="M0 0 C12.90260465 8.29895531 21.41876547 20.04190278 24.75 35.1875 C26.25575612 53.04888294 22.9105743 67.23062988 11.5625 81.375 C4.05283268 89.56285313 -8.09781553 96.41594956 -19.34960938 97.36450195 C-37.38682217 97.85703246 -51.66079256 94.80126299 -65.37109375 82.2265625 C-77.34553024 69.23143599 -80.05716863 54.54990459 -79.42919922 37.61035156 C-78.53461978 25.5152475 -71.05393337 13.29993669 -62.25 5.1875 C-43.60477089 -8.83944929 -20.59459356 -11.60390241 0 0 Z " fill="#F5F4F4" transform="translate(79.25,6.8125)"/>
<path d="M0 0 C6.7799599 3.73104501 10.53672452 9.17110528 13.9375 15.97265625 C14.65719345 25.6236274 14.71608928 33.26843224 8.32421875 40.8984375 C3.90982658 45.62604597 -0.22166171 48.58932138 -6.796875 49.4765625 C-14.40230117 49.73321038 -20.58174863 49.43618462 -27.00390625 44.8984375 C-32.44015324 39.81291612 -36.14984738 33.97136087 -36.40625 26.51342773 C-36.57754703 14.64174089 -36.57754703 14.64174089 -32.69140625 9.6484375 C-23.3024089 -0.01074682 -13.44638116 -4.51071205 0 0 Z " fill="#F5F3F1" transform="translate(63.0625,28.02734375)"/>
<path d="M0 0 C1.4540625 0.495 1.4540625 0.495 2.9375 1 C3.65477778 2.64551962 4.32075228 4.31422289 4.9375 6 C5.783125 6.309375 6.62875 6.61875 7.5 6.9375 C8.304375 7.288125 9.10875 7.63875 9.9375 8 C11 10.875 11 10.875 10.9375 14 C8.13710813 18.20058781 4.62119288 18.72262921 -0.0625 20 C-2.28346476 21.37852985 -2.89951951 22.39411071 -3.57421875 24.90234375 C-3.89350291 26.31485689 -4.18265332 27.73460761 -4.4375 29.16015625 C-5.0625 31 -5.0625 31 -8.0625 33 C-10.9636521 32.78241359 -12.58556101 32.37826195 -14.875 30.5625 C-16.0625 29 -16.0625 29 -16.0625 27 C-16.990625 26.566875 -16.990625 26.566875 -17.9375 26.125 C-20.0625 25 -20.0625 25 -22.0625 23 C-21.85768821 20.33744676 -21.42393198 18.54214797 -19.9375 16.3125 C-17.22712948 14.41524063 -14.22631307 13.90394659 -11.0625 13 C-8.21796612 11.13633987 -8.02326661 9.86268315 -7.0625 6.5 C-5.70640702 1.75367458 -5.11057278 0 0 0 Z " fill="#FDA219" transform="translate(57.0625,36)"/>
<path d="M0 0 C6.7799599 3.73104501 10.53672452 9.17110528 13.9375 15.97265625 C14.65719345 25.6236274 14.71608928 33.26843224 8.32421875 40.8984375 C3.90982658 45.62604597 -0.22166171 48.58932138 -6.796875 49.4765625 C-14.40230117 49.73321038 -20.58174863 49.43618462 -27.00390625 44.8984375 C-32.44015324 39.81291612 -36.14984738 33.97136087 -36.40625 26.51342773 C-36.57754703 14.64174089 -36.57754703 14.64174089 -32.69140625 9.6484375 C-23.3024089 -0.01074682 -13.44638116 -4.51071205 0 0 Z M-29.80078125 11.19140625 C-33.99239105 17.10897303 -33.73236585 22.89242856 -33.0625 29.97265625 C-31.17095167 36.98384436 -26.23517999 41.36918925 -20.234375 45.11328125 C-14.92201594 47.21529383 -8.09302874 46.79026255 -2.64453125 45.3203125 C3.11786889 42.72333139 7.30836077 38.2923064 10.078125 32.6484375 C11.86725697 27.07773114 11.95896284 20.40403739 10.28515625 14.78125 C7.10865216 8.68727005 1.41811435 4.04456069 -5.0625 1.97265625 C-16.25092702 0.75467559 -22.59345568 2.50312337 -29.80078125 11.19140625 Z " fill="#FEA117" transform="translate(63.0625,28.02734375)"/>
<path d="M0 0 C0.99 0 1.98 0 3 0 C3.33 1.98 3.66 3.96 4 6 C6.475 6.495 6.475 6.495 9 7 C8.67 8.65 8.34 10.3 8 12 C5.69 12 3.38 12 1 12 C0.7525 12.61875 0.505 13.2375 0.25 13.875 C-1.20628639 16.35068687 -2.37812506 16.95125002 -5 18 C-5 20.31 -5 22.62 -5 25 C-6.98 25.99 -6.98 25.99 -9 27 C-9.66 26.34 -10.32 25.68 -11 25 C-11 23.68 -11 22.36 -11 21 C-12.65 20.67 -14.3 20.34 -16 20 C-16 18.68 -16 17.36 -16 16 C-15.39671875 15.82984375 -14.7934375 15.6596875 -14.171875 15.484375 C-7.68359127 13.61826983 -7.68359127 13.61826983 -3 9 C-2.59952556 6.67724823 -2.2602896 4.34260643 -2 2 C-1.34 1.34 -0.68 0.68 0 0 Z " fill="#F5F0E8" transform="translate(55,39)"/>
<path d="M0 0 C1 3 1 3 0.1015625 4.859375 C-0.26195312 5.56578125 -0.62546875 6.2721875 -1 7 C-1.45064632 9.58532701 -1.45064632 9.58532701 -1.625 12.25 C-1.69976563 13.14203125 -1.77453125 14.0340625 -1.8515625 14.953125 C-1.90054687 15.62859375 -1.94953125 16.3040625 -2 17 C-2.33 17 -2.66 17 -3 17 C-3.144375 15.9275 -3.28875 14.855 -3.4375 13.75 C-3.86720253 10.22497933 -3.86720253 10.22497933 -4.6875 7.8125 C-5.1261333 5.26842688 -4.41071881 4.11607822 -3 2 C-2.01 1.34 -1.02 0.68 0 0 Z " fill="#FDA726" transform="translate(32,38)"/>
<path d="M0 0 C2.33094534 0.3496418 4.66404762 0.68554487 7 1 C7 1.33 7 1.66 7 2 C2.38 2.66 -2.24 3.32 -7 4 C-6.67 2.68 -6.34 1.36 -6 0 C-3.41583797 -1.29208102 -2.76017944 -0.74599444 0 0 Z " fill="#FDA828" transform="translate(48,28)"/>
</svg>
